<svg id="visual" viewBox="0 0 1600 649.853" width="1600" height="649.853" xmlns="http://www.w3.org/2000/svg" xmlns:xlink="http://www.w3.org/1999/xlink" version="1.1"><g transform="translate(791.0243764560893 296.4927281279852)"><path d="M123 -220.2C161.4 -190.9 195.9 -161.9 237.6 -125.3C279.2 -88.7 328.1 -44.3 337.2 5.2C346.3 54.8 315.6 109.7 284.4 164.5C253.3 219.4 221.6 274.2 174.2 305.3C126.7 336.4 63.3 343.7 1 342C-61.3 340.2 -122.7 329.5 -180.8 304.5C-239 279.6 -294 240.6 -312.5 187.4C-331 134.3 -313 67.2 -313.5 -0.3C-313.9 -67.7 -332.8 -135.4 -307.8 -177.2C-282.8 -219.1 -213.9 -235.1 -155.3 -252.8C-96.7 -270.4 -48.3 -289.7 -3 -284.5C42.3 -279.3 84.6 -249.6 123 -220.2" fill="#021e29"></path></g></svg>