<svg id="visual" viewBox="0 0 1600 649.853" width="1600" height="649.853" xmlns="http://www.w3.org/2000/svg" xmlns:xlink="http://www.w3.org/1999/xlink" version="1.1"><g transform="translate(769.0884324467719 319.4112681674047)"><path d="M147 -253.2C191 -229.2 227.6 -190.9 269.5 -146.3C311.5 -101.7 358.8 -50.8 364.9 3.5C370.9 57.8 335.7 115.7 300.7 172.2C265.7 228.8 230.8 284.2 180.8 297.5C130.7 310.9 65.3 282.4 1.7 279.5C-62 276.6 -124 299.4 -174.7 286.3C-225.3 273.3 -264.6 224.4 -285 170.7C-305.3 117 -306.7 58.5 -300.5 3.6C-294.2 -51.3 -280.5 -102.7 -256.5 -150C-232.5 -197.4 -198.2 -240.7 -153.8 -264.4C-109.3 -288 -54.7 -292 -1.6 -289.3C51.5 -286.5 103 -277.1 147 -253.2" fill="#021e29"></path></g></svg>