<svg id="visual" viewBox="0 0 1600 649.853" width="1600" height="649.853" xmlns="http://www.w3.org/2000/svg" xmlns:xlink="http://www.w3.org/1999/xlink" version="1.1"><g transform="translate(811.2839928812966 285.8143299641406)"><path d="M151.6 -262.8C188.3 -241.5 204.1 -184.2 241.1 -134.4C278.2 -84.6 336.6 -42.3 343.7 4.1C350.8 50.5 306.6 101 267.4 147C228.1 193.1 193.8 234.7 150.1 272.4C106.3 310.2 53.2 344.1 -3.8 350.7C-60.8 357.4 -121.7 336.7 -178.5 306.6C-235.4 276.4 -288.3 236.7 -320.7 184C-353.1 131.3 -365.1 65.7 -366.8 -1C-368.6 -67.7 -360.2 -135.4 -319.3 -173.5C-278.5 -211.6 -205.2 -220.1 -146.6 -228.8C-88 -237.4 -44 -246.2 6.7 -257.9C57.5 -269.6 115 -284.2 151.6 -262.8" fill="#021e29"></path></g></svg>