<svg id="visual" viewBox="0 0 900 450" width="900" height="450" xmlns="http://www.w3.org/2000/svg" xmlns:xlink="http://www.w3.org/1999/xlink" version="1.1"><rect x="0" y="0" width="900" height="450" fill="#111"></rect><path d="M0 329L15 328.8C30 328.7 60 328.3 90 328.5C120 328.7 150 329.3 180 330.5C210 331.7 240 333.3 270 336C300 338.7 330 342.3 360 342.2C390 342 420 338 450 336.5C480 335 510 336 540 337.7C570 339.3 600 341.7 630 340.2C660 338.7 690 333.3 720 331C750 328.7 780 329.3 810 332.5C840 335.7 870 341.3 885 344.2L900 347L900 451L885 451C870 451 840 451 810 451C780 451 750 451 720 451C690 451 660 451 630 451C600 451 570 451 540 451C510 451 480 451 450 451C420 451 390 451 360 451C330 451 300 451 270 451C240 451 210 451 180 451C150 451 120 451 90 451C60 451 30 451 15 451L0 451Z" fill="#0a6386"></path><path d="M0 367L15 363.7C30 360.3 60 353.7 90 352.8C120 352 150 357 180 359.3C210 361.7 240 361.3 270 362.3C300 363.3 330 365.7 360 366C390 366.3 420 364.7 450 364.5C480 364.3 510 365.7 540 364.5C570 363.3 600 359.7 630 357.2C660 354.7 690 353.3 720 354.8C750 356.3 780 360.7 810 360.2C840 359.7 870 354.3 885 351.7L900 349L900 451L885 451C870 451 840 451 810 451C780 451 750 451 720 451C690 451 660 451 630 451C600 451 570 451 540 451C510 451 480 451 450 451C420 451 390 451 360 451C330 451 300 451 270 451C240 451 210 451 180 451C150 451 120 451 90 451C60 451 30 451 15 451L0 451Z" fill="#006b85"></path><path d="M0 364L15 366.5C30 369 60 374 90 374.8C120 375.7 150 372.3 180 370.3C210 368.3 240 367.7 270 369C300 370.3 330 373.7 360 375.8C390 378 420 379 450 378C480 377 510 374 540 372C570 370 600 369 630 369C660 369 690 370 720 371C750 372 780 373 810 374.8C840 376.7 870 379.3 885 380.7L900 382L900 451L885 451C870 451 840 451 810 451C780 451 750 451 720 451C690 451 660 451 630 451C600 451 570 451 540 451C510 451 480 451 450 451C420 451 390 451 360 451C330 451 300 451 270 451C240 451 210 451 180 451C150 451 120 451 90 451C60 451 30 451 15 451L0 451Z" fill="#0a7283"></path><path d="M0 385L15 385.5C30 386 60 387 90 388.8C120 390.7 150 393.3 180 393.3C210 393.3 240 390.7 270 390.7C300 390.7 330 393.3 360 392.5C390 391.7 420 387.3 450 387.2C480 387 510 391 540 393.2C570 395.3 600 395.7 630 395.2C660 394.7 690 393.3 720 392.2C750 391 780 390 810 389.8C840 389.7 870 390.3 885 390.7L900 391L900 451L885 451C870 451 840 451 810 451C780 451 750 451 720 451C690 451 660 451 630 451C600 451 570 451 540 451C510 451 480 451 450 451C420 451 390 451 360 451C330 451 300 451 270 451C240 451 210 451 180 451C150 451 120 451 90 451C60 451 30 451 15 451L0 451Z" fill="#217a7f"></path><path d="M0 407L15 406.5C30 406 60 405 90 406.2C120 407.3 150 410.7 180 413C210 415.3 240 416.7 270 417C300 417.3 330 416.7 360 415.2C390 413.7 420 411.3 450 410.8C480 410.3 510 411.7 540 411.8C570 412 600 411 630 410.2C660 409.3 690 408.7 720 408.5C750 408.3 780 408.7 810 407.8C840 407 870 405 885 404L900 403L900 451L885 451C870 451 840 451 810 451C780 451 750 451 720 451C690 451 660 451 630 451C600 451 570 451 540 451C510 451 480 451 450 451C420 451 390 451 360 451C330 451 300 451 270 451C240 451 210 451 180 451C150 451 120 451 90 451C60 451 30 451 15 451L0 451Z" fill="#36807a"></path><path d="M0 439L15 436C30 433 60 427 90 423.8C120 420.7 150 420.3 180 421.5C210 422.7 240 425.3 270 426.3C300 427.3 330 426.7 360 426.8C390 427 420 428 450 427.7C480 427.3 510 425.7 540 425.3C570 425 600 426 630 428.5C660 431 690 435 720 434.5C750 434 780 429 810 426.7C840 424.3 870 424.7 885 424.8L900 425L900 451L885 451C870 451 840 451 810 451C780 451 750 451 720 451C690 451 660 451 630 451C600 451 570 451 540 451C510 451 480 451 450 451C420 451 390 451 360 451C330 451 300 451 270 451C240 451 210 451 180 451C150 451 120 451 90 451C60 451 30 451 15 451L0 451Z" fill="#4a8676"></path></svg>