<svg id="visual" viewBox="0 0 900 600" width="1800" height="150" xmlns="http://www.w3.org/2000/svg" xmlns:xlink="http://www.w3.org/1999/xlink" version="1.1"><path d="M0 474L18.8 474.5C37.7 475 75.3 476 112.8 470.7C150.3 465.3 187.7 453.7 225.2 451.2C262.7 448.7 300.3 455.3 337.8 457.5C375.3 459.7 412.7 457.3 450.2 456.7C487.7 456 525.3 457 562.8 461.3C600.3 465.7 637.7 473.3 675.2 472C712.7 470.7 750.3 460.3 787.8 458.7C825.3 457 862.7 464 881.3 467.5L900 471L900 601L881.3 601C862.7 601 825.3 601 787.8 601C750.3 601 712.7 601 675.2 601C637.7 601 600.3 601 562.8 601C525.3 601 487.7 601 450.2 601C412.7 601 375.3 601 337.8 601C300.3 601 262.7 601 225.2 601C187.7 601 150.3 601 112.8 601C75.3 601 37.7 601 18.8 601L0 601Z" fill="#050505"></path><path d="M0 477L18.8 478.5C37.7 480 75.3 483 112.8 486.7C150.3 490.3 187.7 494.7 225.2 496.5C262.7 498.3 300.3 497.7 337.8 497.3C375.3 497 412.7 497 450.2 494.8C487.7 492.7 525.3 488.3 562.8 484.8C600.3 481.3 637.7 478.7 675.2 477.3C712.7 476 750.3 476 787.8 478C825.3 480 862.7 484 881.3 486L900 488L900 601L881.3 601C862.7 601 825.3 601 787.8 601C750.3 601 712.7 601 675.2 601C637.7 601 600.3 601 562.8 601C525.3 601 487.7 601 450.2 601C412.7 601 375.3 601 337.8 601C300.3 601 262.7 601 225.2 601C187.7 601 150.3 601 112.8 601C75.3 601 37.7 601 18.8 601L0 601Z" fill="#141414"></path><path d="M0 513L18.8 512.2C37.7 511.3 75.3 509.7 112.8 509.7C150.3 509.7 187.7 511.3 225.2 515.5C262.7 519.7 300.3 526.3 337.8 527.3C375.3 528.3 412.7 523.7 450.2 520C487.7 516.3 525.3 513.7 562.8 511.2C600.3 508.7 637.7 506.3 675.2 504.7C712.7 503 750.3 502 787.8 504.8C825.3 507.7 862.7 514.3 881.3 517.7L900 521L900 601L881.3 601C862.7 601 825.3 601 787.8 601C750.3 601 712.7 601 675.2 601C637.7 601 600.3 601 562.8 601C525.3 601 487.7 601 450.2 601C412.7 601 375.3 601 337.8 601C300.3 601 262.7 601 225.2 601C187.7 601 150.3 601 112.8 601C75.3 601 37.7 601 18.8 601L0 601Z" fill="#1e1e1e"></path><path d="M0 530L18.8 532.3C37.7 534.7 75.3 539.3 112.8 540.5C150.3 541.7 187.7 539.3 225.2 540C262.7 540.7 300.3 544.3 337.8 546.5C375.3 548.7 412.7 549.3 450.2 548.3C487.7 547.3 525.3 544.7 562.8 541.2C600.3 537.7 637.7 533.3 675.2 532.3C712.7 531.3 750.3 533.7 787.8 537.2C825.3 540.7 862.7 545.3 881.3 547.7L900 550L900 601L881.3 601C862.7 601 825.3 601 787.8 601C750.3 601 712.7 601 675.2 601C637.7 601 600.3 601 562.8 601C525.3 601 487.7 601 450.2 601C412.7 601 375.3 601 337.8 601C300.3 601 262.7 601 225.2 601C187.7 601 150.3 601 112.8 601C75.3 601 37.7 601 18.8 601L0 601Z" fill="#282828"></path><path d="M0 571L18.8 571.7C37.7 572.3 75.3 573.7 112.8 571.3C150.3 569 187.7 563 225.2 560.8C262.7 558.7 300.3 560.3 337.8 561C375.3 561.7 412.7 561.3 450.2 562C487.7 562.7 525.3 564.3 562.8 563.8C600.3 563.3 637.7 560.7 675.2 561C712.7 561.3 750.3 564.7 787.8 568.3C825.3 572 862.7 576 881.3 578L900 580L900 601L881.3 601C862.7 601 825.3 601 787.8 601C750.3 601 712.7 601 675.2 601C637.7 601 600.3 601 562.8 601C525.3 601 487.7 601 450.2 601C412.7 601 375.3 601 337.8 601C300.3 601 262.7 601 225.2 601C187.7 601 150.3 601 112.8 601C75.3 601 37.7 601 18.8 601L0 601Z" fill="#333333"></path></svg>