<svg id="visual" viewBox="0 0 900 600" width="900" height="600" xmlns="http://www.w3.org/2000/svg" xmlns:xlink="http://www.w3.org/1999/xlink" version="1.1"><path d="M0 516L18.8 516.2C37.7 516.3 75.3 516.7 112.8 513C150.3 509.3 187.7 501.7 225.2 500.2C262.7 498.7 300.3 503.3 337.8 504.8C375.3 506.3 412.7 504.7 450.2 504.2C487.7 503.7 525.3 504.3 562.8 507.2C600.3 510 637.7 515 675.2 514.2C712.7 513.3 750.3 506.7 787.8 505.7C825.3 504.7 862.7 509.3 881.3 511.7L900 514L900 601L881.3 601C862.7 601 825.3 601 787.8 601C750.3 601 712.7 601 675.2 601C637.7 601 600.3 601 562.8 601C525.3 601 487.7 601 450.2 601C412.7 601 375.3 601 337.8 601C300.3 601 262.7 601 225.2 601C187.7 601 150.3 601 112.8 601C75.3 601 37.7 601 18.8 601L0 601Z" fill="#050505"></path><path d="M0 518L18.8 519C37.7 520 75.3 522 112.8 524.3C150.3 526.7 187.7 529.3 225.2 530.5C262.7 531.7 300.3 531.3 337.8 531.2C375.3 531 412.7 531 450.2 529.5C487.7 528 525.3 525 562.8 522.7C600.3 520.3 637.7 518.7 675.2 517.8C712.7 517 750.3 517 787.8 518.3C825.3 519.7 862.7 522.3 881.3 523.7L900 525L900 601L881.3 601C862.7 601 825.3 601 787.8 601C750.3 601 712.7 601 675.2 601C637.7 601 600.3 601 562.8 601C525.3 601 487.7 601 450.2 601C412.7 601 375.3 601 337.8 601C300.3 601 262.7 601 225.2 601C187.7 601 150.3 601 112.8 601C75.3 601 37.7 601 18.8 601L0 601Z" fill="#141414"></path><path d="M0 542L18.8 541.5C37.7 541 75.3 540 112.8 540C150.3 540 187.7 541 225.2 543.7C262.7 546.3 300.3 550.7 337.8 551.3C375.3 552 412.7 549 450.2 546.5C487.7 544 525.3 542 562.8 540.3C600.3 538.7 637.7 537.3 675.2 536.3C712.7 535.3 750.3 534.7 787.8 536.5C825.3 538.3 862.7 542.7 881.3 544.8L900 547L900 601L881.3 601C862.7 601 825.3 601 787.8 601C750.3 601 712.7 601 675.2 601C637.7 601 600.3 601 562.8 601C525.3 601 487.7 601 450.2 601C412.7 601 375.3 601 337.8 601C300.3 601 262.7 601 225.2 601C187.7 601 150.3 601 112.8 601C75.3 601 37.7 601 18.8 601L0 601Z" fill="#1e1e1e"></path><path d="M0 553L18.8 554.7C37.7 556.3 75.3 559.7 112.8 560.5C150.3 561.3 187.7 559.7 225.2 560C262.7 560.3 300.3 562.7 337.8 564C375.3 565.3 412.7 565.7 450.2 565C487.7 564.3 525.3 562.7 562.8 560.3C600.3 558 637.7 555 675.2 554.3C712.7 553.7 750.3 555.3 787.8 557.8C825.3 560.3 862.7 563.7 881.3 565.3L900 567L900 601L881.3 601C862.7 601 825.3 601 787.8 601C750.3 601 712.7 601 675.2 601C637.7 601 600.3 601 562.8 601C525.3 601 487.7 601 450.2 601C412.7 601 375.3 601 337.8 601C300.3 601 262.7 601 225.2 601C187.7 601 150.3 601 112.8 601C75.3 601 37.7 601 18.8 601L0 601Z" fill="#282828"></path><path d="M0 580L18.8 580.5C37.7 581 75.3 582 112.8 580.5C150.3 579 187.7 575 225.2 573.5C262.7 572 300.3 573 337.8 573.5C375.3 574 412.7 574 450.2 574.5C487.7 575 525.3 576 562.8 575.5C600.3 575 637.7 573 675.2 573.2C712.7 573.3 750.3 575.7 787.8 578.2C825.3 580.7 862.7 583.3 881.3 584.7L900 586L900 601L881.3 601C862.7 601 825.3 601 787.8 601C750.3 601 712.7 601 675.2 601C637.7 601 600.3 601 562.8 601C525.3 601 487.7 601 450.2 601C412.7 601 375.3 601 337.8 601C300.3 601 262.7 601 225.2 601C187.7 601 150.3 601 112.8 601C75.3 601 37.7 601 18.8 601L0 601Z" fill="#333333"></path></svg>