<svg id="visual" viewBox="0 0 900 150" width="900" height="150" xmlns="http://www.w3.org/2000/svg" xmlns:xlink="http://www.w3.org/1999/xlink" version="1.1"><rect x="0" y="0" width="900" height="150" fill="#111"></rect><path d="M0 109L15 109C30 109 60 109 90 109C120 109 150 109 180 109.3C210 109.7 240 110.3 270 111.3C300 112.3 330 113.7 360 113.7C390 113.7 420 112.3 450 111.8C480 111.3 510 111.7 540 112.2C570 112.7 600 113.3 630 112.8C660 112.3 690 110.7 720 109.8C750 109 780 109 810 110C840 111 870 113 885 114L900 115L900 151L885 151C870 151 840 151 810 151C780 151 750 151 720 151C690 151 660 151 630 151C600 151 570 151 540 151C510 151 480 151 450 151C420 151 390 151 360 151C330 151 300 151 270 151C240 151 210 151 180 151C150 151 120 151 90 151C60 151 30 151 15 151L0 151Z" fill="#0a6386"></path><path d="M0 122L15 120.8C30 119.7 60 117.3 90 117C120 116.7 150 118.3 180 119.2C210 120 240 120 270 120.3C300 120.7 330 121.3 360 121.3C390 121.3 420 120.7 450 120.7C480 120.7 510 121.3 540 121C570 120.7 600 119.3 630 118.5C660 117.7 690 117.3 720 117.8C750 118.3 780 119.7 810 119.5C840 119.3 870 117.7 885 116.8L900 116L900 151L885 151C870 151 840 151 810 151C780 151 750 151 720 151C690 151 660 151 630 151C600 151 570 151 540 151C510 151 480 151 450 151C420 151 390 151 360 151C330 151 300 151 270 151C240 151 210 151 180 151C150 151 120 151 90 151C60 151 30 151 15 151L0 151Z" fill="#006b85"></path><path d="M0 121L15 121.8C30 122.7 60 124.3 90 124.5C120 124.7 150 123.3 180 122.7C210 122 240 122 270 122.5C300 123 330 124 360 124.7C390 125.3 420 125.7 450 125.3C480 125 510 124 540 123.3C570 122.7 600 122.3 630 122.3C660 122.3 690 122.7 720 123C750 123.3 780 123.7 810 124.3C840 125 870 126 885 126.5L900 127L900 151L885 151C870 151 840 151 810 151C780 151 750 151 720 151C690 151 660 151 630 151C600 151 570 151 540 151C510 151 480 151 450 151C420 151 390 151 360 151C330 151 300 151 270 151C240 151 210 151 180 151C150 151 120 151 90 151C60 151 30 151 15 151L0 151Z" fill="#0a7283"></path><path d="M0 128L15 128.2C30 128.3 60 128.7 90 129.2C120 129.7 150 130.3 180 130.3C210 130.3 240 129.7 270 129.7C300 129.7 330 130.3 360 130C390 129.7 420 128.3 450 128.3C480 128.3 510 129.7 540 130.3C570 131 600 131 630 130.8C660 130.7 690 130.3 720 130C750 129.7 780 129.3 810 129.3C840 129.3 870 129.7 885 129.8L900 130L900 151L885 151C870 151 840 151 810 151C780 151 750 151 720 151C690 151 660 151 630 151C600 151 570 151 540 151C510 151 480 151 450 151C420 151 390 151 360 151C330 151 300 151 270 151C240 151 210 151 180 151C150 151 120 151 90 151C60 151 30 151 15 151L0 151Z" fill="#217a7f"></path><path d="M0 135L15 134.8C30 134.7 60 134.3 90 134.7C120 135 150 136 180 136.8C210 137.7 240 138.3 270 138.5C300 138.7 330 138.3 360 137.8C390 137.3 420 136.7 450 136.5C480 136.3 510 136.7 540 136.7C570 136.7 600 136.3 630 136C660 135.7 690 135.3 720 135.3C750 135.3 780 135.7 810 135.5C840 135.3 870 134.7 885 134.3L900 134L900 151L885 151C870 151 840 151 810 151C780 151 750 151 720 151C690 151 660 151 630 151C600 151 570 151 540 151C510 151 480 151 450 151C420 151 390 151 360 151C330 151 300 151 270 151C240 151 210 151 180 151C150 151 120 151 90 151C60 151 30 151 15 151L0 151Z" fill="#36807a"></path><path d="M0 146L15 145C30 144 60 142 90 140.8C120 139.7 150 139.3 180 139.7C210 140 240 141 270 141.3C300 141.7 330 141.3 360 141.3C390 141.3 420 141.7 450 141.7C480 141.7 510 141.3 540 141.3C570 141.3 600 141.7 630 142.5C660 143.3 690 144.7 720 144.5C750 144.3 780 142.7 810 141.8C840 141 870 141 885 141L900 141L900 151L885 151C870 151 840 151 810 151C780 151 750 151 720 151C690 151 660 151 630 151C600 151 570 151 540 151C510 151 480 151 450 151C420 151 390 151 360 151C330 151 300 151 270 151C240 151 210 151 180 151C150 151 120 151 90 151C60 151 30 151 15 151L0 151Z" fill="#4a8676"></path></svg>