<svg id="visual" viewBox="0 0 900 150" width="900" height="150" xmlns="http://www.w3.org/2000/svg" xmlns:xlink="http://www.w3.org/1999/xlink" version="1.1"><rect x="0" y="0" width="900" height="150" fill="#ffffff"></rect><path d="M0 40L8.8 39.7C17.7 39.3 35.3 38.7 53 39C70.7 39.3 88.3 40.7 106 39.8C123.7 39 141.3 36 159 34.2C176.7 32.3 194.3 31.7 212 30.3C229.7 29 247.3 27 265 26.7C282.7 26.3 300.3 27.7 318 30.2C335.7 32.7 353.3 36.3 371 36C388.7 35.7 406.3 31.3 423.8 29C441.3 26.7 458.7 26.3 476.2 26.7C493.7 27 511.3 28 529 28C546.7 28 564.3 27 582 27C599.7 27 617.3 28 635 30.3C652.7 32.7 670.3 36.3 688 38.2C705.7 40 723.3 40 741 37.3C758.7 34.7 776.3 29.3 794 28C811.7 26.7 829.3 29.3 847 32C864.7 34.7 882.3 37.3 891.2 38.7L900 40L900 151L891.2 151C882.3 151 864.7 151 847 151C829.3 151 811.7 151 794 151C776.3 151 758.7 151 741 151C723.3 151 705.7 151 688 151C670.3 151 652.7 151 635 151C617.3 151 599.7 151 582 151C564.3 151 546.7 151 529 151C511.3 151 493.7 151 476.2 151C458.7 151 441.3 151 423.8 151C406.3 151 388.7 151 371 151C353.3 151 335.7 151 318 151C300.3 151 282.7 151 265 151C247.3 151 229.7 151 212 151C194.3 151 176.7 151 159 151C141.3 151 123.7 151 106 151C88.3 151 70.7 151 53 151C35.3 151 17.7 151 8.8 151L0 151Z" fill="#ffffff"></path><path d="M0 54L8.8 52.5C17.7 51 35.3 48 53 46.5C70.7 45 88.3 45 106 44.8C123.7 44.7 141.3 44.3 159 43.3C176.7 42.3 194.3 40.7 212 41.3C229.7 42 247.3 45 265 45.3C282.7 45.7 300.3 43.3 318 43.3C335.7 43.3 353.3 45.7 371 47C388.7 48.3 406.3 48.7 423.8 47.5C441.3 46.3 458.7 43.7 476.2 42.5C493.7 41.3 511.3 41.7 529 43C546.7 44.3 564.3 46.7 582 48.5C599.7 50.3 617.3 51.7 635 51.5C652.7 51.3 670.3 49.7 688 49C705.7 48.3 723.3 48.7 741 49.3C758.7 50 776.3 51 794 49.3C811.7 47.7 829.3 43.3 847 42.2C864.7 41 882.3 43 891.2 44L900 45L900 151L891.2 151C882.3 151 864.7 151 847 151C829.3 151 811.7 151 794 151C776.3 151 758.7 151 741 151C723.3 151 705.7 151 688 151C670.3 151 652.7 151 635 151C617.3 151 599.7 151 582 151C564.3 151 546.7 151 529 151C511.3 151 493.7 151 476.2 151C458.7 151 441.3 151 423.8 151C406.3 151 388.7 151 371 151C353.3 151 335.7 151 318 151C300.3 151 282.7 151 265 151C247.3 151 229.7 151 212 151C194.3 151 176.7 151 159 151C141.3 151 123.7 151 106 151C88.3 151 70.7 151 53 151C35.3 151 17.7 151 8.8 151L0 151Z" fill="#d7dbdd"></path><path d="M0 60L8.8 61.2C17.7 62.3 35.3 64.7 53 64.7C70.7 64.7 88.3 62.3 106 62.3C123.7 62.3 141.3 64.7 159 65.5C176.7 66.3 194.3 65.7 212 63.8C229.7 62 247.3 59 265 57.2C282.7 55.3 300.3 54.7 318 55C335.7 55.3 353.3 56.7 371 58.7C388.7 60.7 406.3 63.3 423.8 64.2C441.3 65 458.7 64 476.2 63.2C493.7 62.3 511.3 61.7 529 60.8C546.7 60 564.3 59 582 59.7C599.7 60.3 617.3 62.7 635 63.7C652.7 64.7 670.3 64.3 688 65C705.7 65.7 723.3 67.3 741 65.7C758.7 64 776.3 59 794 58C811.7 57 829.3 60 847 61.7C864.7 63.3 882.3 63.7 891.2 63.8L900 64L900 151L891.2 151C882.3 151 864.7 151 847 151C829.3 151 811.7 151 794 151C776.3 151 758.7 151 741 151C723.3 151 705.7 151 688 151C670.3 151 652.7 151 635 151C617.3 151 599.7 151 582 151C564.3 151 546.7 151 529 151C511.3 151 493.7 151 476.2 151C458.7 151 441.3 151 423.8 151C406.3 151 388.7 151 371 151C353.3 151 335.7 151 318 151C300.3 151 282.7 151 265 151C247.3 151 229.7 151 212 151C194.3 151 176.7 151 159 151C141.3 151 123.7 151 106 151C88.3 151 70.7 151 53 151C35.3 151 17.7 151 8.8 151L0 151Z" fill="#b0b7bc"></path><path d="M0 81L8.8 81.3C17.7 81.7 35.3 82.3 53 80.8C70.7 79.3 88.3 75.7 106 74.3C123.7 73 141.3 74 159 73.8C176.7 73.7 194.3 72.3 212 72C229.7 71.7 247.3 72.3 265 73.2C282.7 74 300.3 75 318 74.7C335.7 74.3 353.3 72.7 371 71.8C388.7 71 406.3 71 423.8 72.3C441.3 73.7 458.7 76.3 476.2 78.2C493.7 80 511.3 81 529 79.8C546.7 78.7 564.3 75.3 582 74.8C599.7 74.3 617.3 76.7 635 77.3C652.7 78 670.3 77 688 76.3C705.7 75.7 723.3 75.3 741 74C758.7 72.7 776.3 70.3 794 70.8C811.7 71.3 829.3 74.7 847 75.7C864.7 76.7 882.3 75.3 891.2 74.7L900 74L900 151L891.2 151C882.3 151 864.7 151 847 151C829.3 151 811.7 151 794 151C776.3 151 758.7 151 741 151C723.3 151 705.7 151 688 151C670.3 151 652.7 151 635 151C617.3 151 599.7 151 582 151C564.3 151 546.7 151 529 151C511.3 151 493.7 151 476.2 151C458.7 151 441.3 151 423.8 151C406.3 151 388.7 151 371 151C353.3 151 335.7 151 318 151C300.3 151 282.7 151 265 151C247.3 151 229.7 151 212 151C194.3 151 176.7 151 159 151C141.3 151 123.7 151 106 151C88.3 151 70.7 151 53 151C35.3 151 17.7 151 8.8 151L0 151Z" fill="#8b959c"></path><path d="M0 87L8.8 88.2C17.7 89.3 35.3 91.7 53 91.2C70.7 90.7 88.3 87.3 106 85.8C123.7 84.3 141.3 84.7 159 85.3C176.7 86 194.3 87 212 86.7C229.7 86.3 247.3 84.7 265 85.2C282.7 85.7 300.3 88.3 318 89.2C335.7 90 353.3 89 371 88C388.7 87 406.3 86 423.8 85.5C441.3 85 458.7 85 476.2 84.7C493.7 84.3 511.3 83.7 529 83.8C546.7 84 564.3 85 582 86.8C599.7 88.7 617.3 91.3 635 91.8C652.7 92.3 670.3 90.7 688 89.2C705.7 87.7 723.3 86.3 741 87.5C758.7 88.7 776.3 92.3 794 93C811.7 93.7 829.3 91.3 847 90.7C864.7 90 882.3 91 891.2 91.5L900 92L900 151L891.2 151C882.3 151 864.7 151 847 151C829.3 151 811.7 151 794 151C776.3 151 758.7 151 741 151C723.3 151 705.7 151 688 151C670.3 151 652.7 151 635 151C617.3 151 599.7 151 582 151C564.3 151 546.7 151 529 151C511.3 151 493.7 151 476.2 151C458.7 151 441.3 151 423.8 151C406.3 151 388.7 151 371 151C353.3 151 335.7 151 318 151C300.3 151 282.7 151 265 151C247.3 151 229.7 151 212 151C194.3 151 176.7 151 159 151C141.3 151 123.7 151 106 151C88.3 151 70.7 151 53 151C35.3 151 17.7 151 8.8 151L0 151Z" fill="#67757d"></path><path d="M0 98L8.8 98.5C17.7 99 35.3 100 53 100.3C70.7 100.7 88.3 100.3 106 100C123.7 99.7 141.3 99.3 159 99.5C176.7 99.7 194.3 100.3 212 101.7C229.7 103 247.3 105 265 106.5C282.7 108 300.3 109 318 109.5C335.7 110 353.3 110 371 110C388.7 110 406.3 110 423.8 110C441.3 110 458.7 110 476.2 109.7C493.7 109.3 511.3 108.7 529 108.5C546.7 108.3 564.3 108.7 582 107.7C599.7 106.7 617.3 104.3 635 104.3C652.7 104.3 670.3 106.7 688 106.2C705.7 105.7 723.3 102.3 741 101.7C758.7 101 776.3 103 794 103.7C811.7 104.3 829.3 103.7 847 102.8C864.7 102 882.3 101 891.2 100.5L900 100L900 151L891.2 151C882.3 151 864.7 151 847 151C829.3 151 811.7 151 794 151C776.3 151 758.7 151 741 151C723.3 151 705.7 151 688 151C670.3 151 652.7 151 635 151C617.3 151 599.7 151 582 151C564.3 151 546.7 151 529 151C511.3 151 493.7 151 476.2 151C458.7 151 441.3 151 423.8 151C406.3 151 388.7 151 371 151C353.3 151 335.7 151 318 151C300.3 151 282.7 151 265 151C247.3 151 229.7 151 212 151C194.3 151 176.7 151 159 151C141.3 151 123.7 151 106 151C88.3 151 70.7 151 53 151C35.3 151 17.7 151 8.8 151L0 151Z" fill="#45565f"></path><path d="M0 122L8.8 121.7C17.7 121.3 35.3 120.7 53 119.5C70.7 118.3 88.3 116.7 106 117C123.7 117.3 141.3 119.7 159 119.3C176.7 119 194.3 116 212 114.5C229.7 113 247.3 113 265 114C282.7 115 300.3 117 318 117.7C335.7 118.3 353.3 117.7 371 117.3C388.7 117 406.3 117 423.8 116.8C441.3 116.7 458.7 116.3 476.2 116.8C493.7 117.3 511.3 118.7 529 119.7C546.7 120.7 564.3 121.3 582 120.2C599.7 119 617.3 116 635 114.8C652.7 113.7 670.3 114.3 688 115.3C705.7 116.3 723.3 117.7 741 117.7C758.7 117.7 776.3 116.3 794 115.3C811.7 114.3 829.3 113.7 847 113.5C864.7 113.3 882.3 113.7 891.2 113.8L900 114L900 151L891.2 151C882.3 151 864.7 151 847 151C829.3 151 811.7 151 794 151C776.3 151 758.7 151 741 151C723.3 151 705.7 151 688 151C670.3 151 652.7 151 635 151C617.3 151 599.7 151 582 151C564.3 151 546.7 151 529 151C511.3 151 493.7 151 476.2 151C458.7 151 441.3 151 423.8 151C406.3 151 388.7 151 371 151C353.3 151 335.7 151 318 151C300.3 151 282.7 151 265 151C247.3 151 229.7 151 212 151C194.3 151 176.7 151 159 151C141.3 151 123.7 151 106 151C88.3 151 70.7 151 53 151C35.3 151 17.7 151 8.8 151L0 151Z" fill="#243943"></path><path d="M0 136L8.8 135.5C17.7 135 35.3 134 53 132.8C70.7 131.7 88.3 130.3 106 130.8C123.7 131.3 141.3 133.7 159 133.5C176.7 133.3 194.3 130.7 212 130.7C229.7 130.7 247.3 133.3 265 133.2C282.7 133 300.3 130 318 129.5C335.7 129 353.3 131 371 131.7C388.7 132.3 406.3 131.7 423.8 131.8C441.3 132 458.7 133 476.2 132.5C493.7 132 511.3 130 529 130C546.7 130 564.3 132 582 132.8C599.7 133.7 617.3 133.3 635 133.2C652.7 133 670.3 133 688 132.5C705.7 132 723.3 131 741 130.3C758.7 129.7 776.3 129.3 794 130.2C811.7 131 829.3 133 847 133.7C864.7 134.3 882.3 133.7 891.2 133.3L900 133L900 151L891.2 151C882.3 151 864.7 151 847 151C829.3 151 811.7 151 794 151C776.3 151 758.7 151 741 151C723.3 151 705.7 151 688 151C670.3 151 652.7 151 635 151C617.3 151 599.7 151 582 151C564.3 151 546.7 151 529 151C511.3 151 493.7 151 476.2 151C458.7 151 441.3 151 423.8 151C406.3 151 388.7 151 371 151C353.3 151 335.7 151 318 151C300.3 151 282.7 151 265 151C247.3 151 229.7 151 212 151C194.3 151 176.7 151 159 151C141.3 151 123.7 151 106 151C88.3 151 70.7 151 53 151C35.3 151 17.7 151 8.8 151L0 151Z" fill="#021e29"></path></svg>