<svg id="visual" viewBox="0 0 900 150" width="900" height="150" xmlns="http://www.w3.org/2000/svg" xmlns:xlink="http://www.w3.org/1999/xlink" version="1.1"><rect x="0" y="0" width="900" height="150" fill="#111"></rect><path d="M0 91L18.8 88.5C37.7 86 75.3 81 112.8 79.5C150.3 78 187.7 80 225.2 78.7C262.7 77.3 300.3 72.7 337.8 69.8C375.3 67 412.7 66 450.2 69.2C487.7 72.3 525.3 79.7 562.8 79.2C600.3 78.7 637.7 70.3 675.2 70C712.7 69.7 750.3 77.3 787.8 78.7C825.3 80 862.7 75 881.3 72.5L900 70L900 151L881.3 151C862.7 151 825.3 151 787.8 151C750.3 151 712.7 151 675.2 151C637.7 151 600.3 151 562.8 151C525.3 151 487.7 151 450.2 151C412.7 151 375.3 151 337.8 151C300.3 151 262.7 151 225.2 151C187.7 151 150.3 151 112.8 151C75.3 151 37.7 151 18.8 151L0 151Z" fill="#f3c04d"></path><path d="M0 97L18.8 94C37.7 91 75.3 85 112.8 83.8C150.3 82.7 187.7 86.3 225.2 88.5C262.7 90.7 300.3 91.3 337.8 92C375.3 92.7 412.7 93.3 450.2 94C487.7 94.7 525.3 95.3 562.8 94C600.3 92.7 637.7 89.3 675.2 90.5C712.7 91.7 750.3 97.3 787.8 97.5C825.3 97.7 862.7 92.3 881.3 89.7L900 87L900 151L881.3 151C862.7 151 825.3 151 787.8 151C750.3 151 712.7 151 675.2 151C637.7 151 600.3 151 562.8 151C525.3 151 487.7 151 450.2 151C412.7 151 375.3 151 337.8 151C300.3 151 262.7 151 225.2 151C187.7 151 150.3 151 112.8 151C75.3 151 37.7 151 18.8 151L0 151Z" fill="#ff9f70"></path><path d="M0 102L18.8 102.2C37.7 102.3 75.3 102.7 112.8 102.7C150.3 102.7 187.7 102.3 225.2 103.2C262.7 104 300.3 106 337.8 105.3C375.3 104.7 412.7 101.3 450.2 97.8C487.7 94.3 525.3 90.7 562.8 89.8C600.3 89 637.7 91 675.2 94.7C712.7 98.3 750.3 103.7 787.8 104.3C825.3 105 862.7 101 881.3 99L900 97L900 151L881.3 151C862.7 151 825.3 151 787.8 151C750.3 151 712.7 151 675.2 151C637.7 151 600.3 151 562.8 151C525.3 151 487.7 151 450.2 151C412.7 151 375.3 151 337.8 151C300.3 151 262.7 151 225.2 151C187.7 151 150.3 151 112.8 151C75.3 151 37.7 151 18.8 151L0 151Z" fill="#ff8ba2"></path><path d="M0 113L18.8 111.8C37.7 110.7 75.3 108.3 112.8 108.3C150.3 108.3 187.7 110.7 225.2 110C262.7 109.3 300.3 105.7 337.8 104.7C375.3 103.7 412.7 105.3 450.2 105.3C487.7 105.3 525.3 103.7 562.8 105.2C600.3 106.7 637.7 111.3 675.2 113.2C712.7 115 750.3 114 787.8 113.5C825.3 113 862.7 113 881.3 113L900 113L900 151L881.3 151C862.7 151 825.3 151 787.8 151C750.3 151 712.7 151 675.2 151C637.7 151 600.3 151 562.8 151C525.3 151 487.7 151 450.2 151C412.7 151 375.3 151 337.8 151C300.3 151 262.7 151 225.2 151C187.7 151 150.3 151 112.8 151C75.3 151 37.7 151 18.8 151L0 151Z" fill="#e98ccf"></path><path d="M0 118L18.8 117.5C37.7 117 75.3 116 112.8 117.2C150.3 118.3 187.7 121.7 225.2 122.3C262.7 123 300.3 121 337.8 121.8C375.3 122.7 412.7 126.3 450.2 126C487.7 125.7 525.3 121.3 562.8 119.5C600.3 117.7 637.7 118.3 675.2 118.2C712.7 118 750.3 117 787.8 118.7C825.3 120.3 862.7 124.7 881.3 126.8L900 129L900 151L881.3 151C862.7 151 825.3 151 787.8 151C750.3 151 712.7 151 675.2 151C637.7 151 600.3 151 562.8 151C525.3 151 487.7 151 450.2 151C412.7 151 375.3 151 337.8 151C300.3 151 262.7 151 225.2 151C187.7 151 150.3 151 112.8 151C75.3 151 37.7 151 18.8 151L0 151Z" fill="#aa97e9"></path><path d="M0 134L18.8 134.2C37.7 134.3 75.3 134.7 112.8 134.2C150.3 133.7 187.7 132.3 225.2 132.5C262.7 132.7 300.3 134.3 337.8 134C375.3 133.7 412.7 131.3 450.2 131.2C487.7 131 525.3 133 562.8 134C600.3 135 637.7 135 675.2 134.2C712.7 133.3 750.3 131.7 787.8 132.5C825.3 133.3 862.7 136.7 881.3 138.3L900 140L900 151L881.3 151C862.7 151 825.3 151 787.8 151C750.3 151 712.7 151 675.2 151C637.7 151 600.3 151 562.8 151C525.3 151 487.7 151 450.2 151C412.7 151 375.3 151 337.8 151C300.3 151 262.7 151 225.2 151C187.7 151 150.3 151 112.8 151C75.3 151 37.7 151 18.8 151L0 151Z" fill="#55a0e6"></path></svg>