<svg id="visual" viewBox="0 0 900 150" width="900" height="150" xmlns="http://www.w3.org/2000/svg" xmlns:xlink="http://www.w3.org/1999/xlink" version="1.1"><rect x="0" y="0" width="900" height="150" fill="#ffffff"></rect><path d="M0 78L10 76.5C20 75 40 72 60 73C80 74 100 79 120 82.5C140 86 160 88 180 86C200 84 220 78 240 74.7C260 71.3 280 70.7 300 70.5C320 70.3 340 70.7 360 71.3C380 72 400 73 420 75C440 77 460 80 480 81C500 82 520 81 540 79.3C560 77.7 580 75.3 600 74.3C620 73.3 640 73.7 660 75.3C680 77 700 80 720 81.2C740 82.3 760 81.7 780 79.5C800 77.3 820 73.7 840 73.5C860 73.3 880 76.7 890 78.3L900 80L900 151L890 151C880 151 860 151 840 151C820 151 800 151 780 151C760 151 740 151 720 151C700 151 680 151 660 151C640 151 620 151 600 151C580 151 560 151 540 151C520 151 500 151 480 151C460 151 440 151 420 151C400 151 380 151 360 151C340 151 320 151 300 151C280 151 260 151 240 151C220 151 200 151 180 151C160 151 140 151 120 151C100 151 80 151 60 151C40 151 20 151 10 151L0 151Z" fill="#ffffff"></path><path d="M0 94L10 94.5C20 95 40 96 60 96.5C80 97 100 97 120 96.8C140 96.7 160 96.3 180 94.7C200 93 220 90 240 89.8C260 89.7 280 92.3 300 94.2C320 96 340 97 360 95.3C380 93.7 400 89.3 420 86.8C440 84.3 460 83.7 480 85.3C500 87 520 91 540 94.3C560 97.7 580 100.3 600 100.5C620 100.7 640 98.3 660 97.8C680 97.3 700 98.7 720 97.5C740 96.3 760 92.7 780 90.2C800 87.7 820 86.3 840 88.5C860 90.7 880 96.3 890 99.2L900 102L900 151L890 151C880 151 860 151 840 151C820 151 800 151 780 151C760 151 740 151 720 151C700 151 680 151 660 151C640 151 620 151 600 151C580 151 560 151 540 151C520 151 500 151 480 151C460 151 440 151 420 151C400 151 380 151 360 151C340 151 320 151 300 151C280 151 260 151 240 151C220 151 200 151 180 151C160 151 140 151 120 151C100 151 80 151 60 151C40 151 20 151 10 151L0 151Z" fill="#e9e8ff"></path><path d="M0 105L10 102.7C20 100.3 40 95.7 60 93.3C80 91 100 91 120 91.8C140 92.7 160 94.3 180 97.5C200 100.7 220 105.3 240 107.5C260 109.7 280 109.3 300 108C320 106.7 340 104.3 360 101.8C380 99.3 400 96.7 420 97.3C440 98 460 102 480 103.3C500 104.7 520 103.3 540 102.5C560 101.7 580 101.3 600 101.2C620 101 640 101 660 99.8C680 98.7 700 96.3 720 94.5C740 92.7 760 91.3 780 92.3C800 93.3 820 96.7 840 99.8C860 103 880 106 890 107.5L900 109L900 151L890 151C880 151 860 151 840 151C820 151 800 151 780 151C760 151 740 151 720 151C700 151 680 151 660 151C640 151 620 151 600 151C580 151 560 151 540 151C520 151 500 151 480 151C460 151 440 151 420 151C400 151 380 151 360 151C340 151 320 151 300 151C280 151 260 151 240 151C220 151 200 151 180 151C160 151 140 151 120 151C100 151 80 151 60 151C40 151 20 151 10 151L0 151Z" fill="#d1d1ff"></path><path d="M0 116L10 114.5C20 113 40 110 60 107.5C80 105 100 103 120 103.5C140 104 160 107 180 107.8C200 108.7 220 107.3 240 107.8C260 108.3 280 110.7 300 111C320 111.3 340 109.7 360 107.2C380 104.7 400 101.3 420 100.8C440 100.3 460 102.7 480 104.7C500 106.7 520 108.3 540 109.5C560 110.7 580 111.3 600 110.8C620 110.3 640 108.7 660 108.3C680 108 700 109 720 109.2C740 109.3 760 108.7 780 109.2C800 109.7 820 111.3 840 110.7C860 110 880 107 890 105.5L900 104L900 151L890 151C880 151 860 151 840 151C820 151 800 151 780 151C760 151 740 151 720 151C700 151 680 151 660 151C640 151 620 151 600 151C580 151 560 151 540 151C520 151 500 151 480 151C460 151 440 151 420 151C400 151 380 151 360 151C340 151 320 151 300 151C280 151 260 151 240 151C220 151 200 151 180 151C160 151 140 151 120 151C100 151 80 151 60 151C40 151 20 151 10 151L0 151Z" fill="#b9baff"></path><path d="M0 122L10 120.7C20 119.3 40 116.7 60 114.5C80 112.3 100 110.7 120 111.5C140 112.3 160 115.7 180 117.2C200 118.7 220 118.3 240 117.3C260 116.3 280 114.7 300 115C320 115.3 340 117.7 360 118.2C380 118.7 400 117.3 420 115.7C440 114 460 112 480 111.7C500 111.3 520 112.7 540 114.2C560 115.7 580 117.3 600 116.8C620 116.3 640 113.7 660 112.5C680 111.3 700 111.7 720 112.2C740 112.7 760 113.3 780 112.7C800 112 820 110 840 110.8C860 111.7 880 115.3 890 117.2L900 119L900 151L890 151C880 151 860 151 840 151C820 151 800 151 780 151C760 151 740 151 720 151C700 151 680 151 660 151C640 151 620 151 600 151C580 151 560 151 540 151C520 151 500 151 480 151C460 151 440 151 420 151C400 151 380 151 360 151C340 151 320 151 300 151C280 151 260 151 240 151C220 151 200 151 180 151C160 151 140 151 120 151C100 151 80 151 60 151C40 151 20 151 10 151L0 151Z" fill="#9ea4ff"></path><path d="M0 128L10 125.8C20 123.7 40 119.3 60 118.7C80 118 100 121 120 121.7C140 122.3 160 120.7 180 120.5C200 120.3 220 121.7 240 121.3C260 121 280 119 300 119.7C320 120.3 340 123.7 360 123.5C380 123.3 400 119.7 420 118.5C440 117.3 460 118.7 480 120.3C500 122 520 124 540 125.3C560 126.7 580 127.3 600 127.5C620 127.7 640 127.3 660 125.7C680 124 700 121 720 120C740 119 760 120 780 120.8C800 121.7 820 122.3 840 123.3C860 124.3 880 125.7 890 126.3L900 127L900 151L890 151C880 151 860 151 840 151C820 151 800 151 780 151C760 151 740 151 720 151C700 151 680 151 660 151C640 151 620 151 600 151C580 151 560 151 540 151C520 151 500 151 480 151C460 151 440 151 420 151C400 151 380 151 360 151C340 151 320 151 300 151C280 151 260 151 240 151C220 151 200 151 180 151C160 151 140 151 120 151C100 151 80 151 60 151C40 151 20 151 10 151L0 151Z" fill="#808fff"></path><path d="M0 127L10 127.3C20 127.7 40 128.3 60 129.5C80 130.7 100 132.3 120 132.7C140 133 160 132 180 132.2C200 132.3 220 133.7 240 134.8C260 136 280 137 300 136.7C320 136.3 340 134.7 360 133.3C380 132 400 131 420 131.7C440 132.3 460 134.7 480 135.7C500 136.7 520 136.3 540 136.2C560 136 580 136 600 135.5C620 135 640 134 660 134C680 134 700 135 720 133.7C740 132.3 760 128.7 780 128.5C800 128.3 820 131.7 840 133.5C860 135.3 880 135.7 890 135.8L900 136L900 151L890 151C880 151 860 151 840 151C820 151 800 151 780 151C760 151 740 151 720 151C700 151 680 151 660 151C640 151 620 151 600 151C580 151 560 151 540 151C520 151 500 151 480 151C460 151 440 151 420 151C400 151 380 151 360 151C340 151 320 151 300 151C280 151 260 151 240 151C220 151 200 151 180 151C160 151 140 151 120 151C100 151 80 151 60 151C40 151 20 151 10 151L0 151Z" fill="#5a7aff"></path><path d="M0 145L10 143.7C20 142.3 40 139.7 60 138C80 136.3 100 135.7 120 135.8C140 136 160 137 180 138C200 139 220 140 240 140.8C260 141.7 280 142.3 300 141.7C320 141 340 139 360 138.5C380 138 400 139 420 138.8C440 138.7 460 137.3 480 137.5C500 137.7 520 139.3 540 140.5C560 141.7 580 142.3 600 142.5C620 142.7 640 142.3 660 141.7C680 141 700 140 720 140.3C740 140.7 760 142.3 780 142.3C800 142.3 820 140.7 840 139.2C860 137.7 880 136.3 890 135.7L900 135L900 151L890 151C880 151 860 151 840 151C820 151 800 151 780 151C760 151 740 151 720 151C700 151 680 151 660 151C640 151 620 151 600 151C580 151 560 151 540 151C520 151 500 151 480 151C460 151 440 151 420 151C400 151 380 151 360 151C340 151 320 151 300 151C280 151 260 151 240 151C220 151 200 151 180 151C160 151 140 151 120 151C100 151 80 151 60 151C40 151 20 151 10 151L0 151Z" fill="#0066ff"></path></svg>