<svg id="visual" viewBox="0 0 900 150" width="900" height="150" xmlns="http://www.w3.org/2000/svg" xmlns:xlink="http://www.w3.org/1999/xlink" version="1.1"><rect x="0" y="0" width="900" height="150" fill="#111"></rect><path d="M0 43L15 42.7C30 42.3 60 41.7 90 41.7C120 41.7 150 42.3 180 43.5C210 44.7 240 46.3 270 48.7C300 51 330 54 360 53.8C390 53.7 420 50.3 450 49C480 47.7 510 48.3 540 49.8C570 51.3 600 53.7 630 52.5C660 51.3 690 46.7 720 44.5C750 42.3 780 42.7 810 45.3C840 48 870 53 885 55.5L900 58L900 151L885 151C870 151 840 151 810 151C780 151 750 151 720 151C690 151 660 151 630 151C600 151 570 151 540 151C510 151 480 151 450 151C420 151 390 151 360 151C330 151 300 151 270 151C240 151 210 151 180 151C150 151 120 151 90 151C60 151 30 151 15 151L0 151Z" fill="#0a6386"></path><path d="M0 76L15 73C30 70 60 64 90 63.2C120 62.3 150 66.7 180 68.8C210 71 240 71 270 72C300 73 330 75 360 75.3C390 75.7 420 74.3 450 74.2C480 74 510 75 540 73.8C570 72.7 600 69.3 630 67.2C660 65 690 64 720 65.5C750 67 780 71 810 70.5C840 70 870 65 885 62.5L900 60L900 151L885 151C870 151 840 151 810 151C780 151 750 151 720 151C690 151 660 151 630 151C600 151 570 151 540 151C510 151 480 151 450 151C420 151 390 151 360 151C330 151 300 151 270 151C240 151 210 151 180 151C150 151 120 151 90 151C60 151 30 151 15 151L0 151Z" fill="#006b85"></path><path d="M0 73L15 75.2C30 77.3 60 81.7 90 82.5C120 83.3 150 80.7 180 79C210 77.3 240 76.7 270 77.8C300 79 330 82 360 84C390 86 420 87 450 86.2C480 85.3 510 82.7 540 80.8C570 79 600 78 630 77.8C660 77.7 690 78.3 720 79.3C750 80.3 780 81.7 810 83.3C840 85 870 87 885 88L900 89L900 151L885 151C870 151 840 151 810 151C780 151 750 151 720 151C690 151 660 151 630 151C600 151 570 151 540 151C510 151 480 151 450 151C420 151 390 151 360 151C330 151 300 151 270 151C240 151 210 151 180 151C150 151 120 151 90 151C60 151 30 151 15 151L0 151Z" fill="#0a7283"></path><path d="M0 92L15 92.5C30 93 60 94 90 95.7C120 97.3 150 99.7 180 99.7C210 99.7 240 97.3 270 97.3C300 97.3 330 99.7 360 98.8C390 98 420 94 450 93.8C480 93.7 510 97.3 540 99.3C570 101.3 600 101.7 630 101.2C660 100.7 690 99.3 720 98.3C750 97.3 780 96.7 810 96.5C840 96.3 870 96.7 885 96.8L900 97L900 151L885 151C870 151 840 151 810 151C780 151 750 151 720 151C690 151 660 151 630 151C600 151 570 151 540 151C510 151 480 151 450 151C420 151 390 151 360 151C330 151 300 151 270 151C240 151 210 151 180 151C150 151 120 151 90 151C60 151 30 151 15 151L0 151Z" fill="#217a7f"></path><path d="M0 112L15 111.5C30 111 60 110 90 111C120 112 150 115 180 117C210 119 240 120 270 120.3C300 120.7 330 120.3 360 119.2C390 118 420 116 450 115.5C480 115 510 116 540 116C570 116 600 115 630 114.2C660 113.3 690 112.7 720 112.7C750 112.7 780 113.3 810 112.7C840 112 870 110 885 109L900 108L900 151L885 151C870 151 840 151 810 151C780 151 750 151 720 151C690 151 660 151 630 151C600 151 570 151 540 151C510 151 480 151 450 151C420 151 390 151 360 151C330 151 300 151 270 151C240 151 210 151 180 151C150 151 120 151 90 151C60 151 30 151 15 151L0 151Z" fill="#36807a"></path><path d="M0 140L15 137.3C30 134.7 60 129.3 90 126.5C120 123.7 150 123.3 180 124.3C210 125.3 240 127.7 270 128.5C300 129.3 330 128.7 360 128.8C390 129 420 130 450 129.8C480 129.7 510 128.3 540 128C570 127.7 600 128.3 630 130.5C660 132.7 690 136.3 720 136C750 135.7 780 131.3 810 129.2C840 127 870 127 885 127L900 127L900 151L885 151C870 151 840 151 810 151C780 151 750 151 720 151C690 151 660 151 630 151C600 151 570 151 540 151C510 151 480 151 450 151C420 151 390 151 360 151C330 151 300 151 270 151C240 151 210 151 180 151C150 151 120 151 90 151C60 151 30 151 15 151L0 151Z" fill="#4a8676"></path></svg>